<?xml version="1.0" encoding="UTF-8"?>
<svg id="SVGRoot" width="500" height="177.14" version="1.1" viewBox="0 0 500 177.13544" xmlns="http://www.w3.org/2000/svg" xmlns:cc="http://creativecommons.org/ns#" xmlns:dc="http://purl.org/dc/elements/1.1/" xmlns:rdf="http://www.w3.org/1999/02/22-rdf-syntax-ns#"><metadata><rdf:RDF><cc:Work rdf:about=""><dc:format>image/svg+xml</dc:format><dc:type rdf:resource="http://purl.org/dc/dcmitype/StillImage"/><dc:title/></cc:Work></rdf:RDF></metadata><g transform="translate(-154.31 -70.588)"><g fill="#7b7f82"><path d="m334.08 238.88h-0.47178c-0.4677 0-0.68325-0.25216-0.93541-0.90695l-5.5271-14.039h-1.9806c-0.25216 0-0.43517-0.14641-0.43517-0.43517v-1.5536c0-0.28876 0.14234-0.4311 0.43517-0.4311h6.5316c0.28876 0 0.47177 0.14234 0.47177 0.4311v1.5536c0 0.28876-0.18301 0.43517-0.47177 0.43517h-1.4804l4.6567 12.238h0.0732l4.3314-12.238h-1.6227c-0.28876 0-0.43517-0.14641-0.43517-0.43517v-1.5536c0-0.28876 0.14641-0.4311 0.43517-0.4311h6.7146c0.28876 0 0.43111 0.14234 0.43111 0.4311v1.5536c0 0.28876-0.14235 0.43517-0.43111 0.43517h-2.0213l-6.4259 17.651c-1.4112 3.827-2.7086 6.1371-6.1371 6.1371-2.1311 0-3.3227-1.1184-3.6481-1.4072-0.21961-0.21555-0.28875-0.4311-0.1098-0.65072l0.90287-1.151c0.21555-0.18302 0.39857-0.21962 0.65072-0.0366 0.18302 0.14235 0.79714 0.68326 1.9115 0.68326 1.8424 0 2.6761-1.0452 3.6115-3.6115z"/><path d="m461.03 241.91c0-0.14641 0.10574-0.21962 0.25215-0.21962 0.65073 0 1.4845-0.53685 1.4845-1.9156 0-0.3213-0.0773-0.43111-0.0773-0.43111s-0.21555 0.18302-0.68326 0.18302c-0.87034 0-1.5861-0.64665-1.5861-1.6634 0-0.97201 0.75646-1.6959 1.7285-1.6959 1.2282 0 1.9847 0.93948 1.9847 2.6354 0 2.851-1.338 3.9003-2.851 3.9003-0.14641 0-0.25215-0.0732-0.25215-0.17895z"/><path d="m591.49 230.97h-2.855c-3.7498 0-6.7472 0.47178-6.7472 3.1763 0 1.6268 1.4438 2.851 3.7172 2.851 3.0299 0 5.0553-2.0172 5.885-3.1031zm1.8749 8.3008c-1.0452 0-1.5495-0.39043-1.5495-1.5129v-1.8424h-0.0732c-0.65073 0.90287-2.672 3.644-7.04 3.644-3.3553 0-5.9216-1.879-5.9216-5.0187 0-4.1118 3.9735-5.7345 9.6754-5.7345h3.034v-0.43517c0-3.4285-1.9115-4.5103-4.6933-4.5103-3.8271 0-5.3034 1.6593-5.4498 1.6593-0.18302 0.0732-0.39857 0.0732-0.54092-0.10981l-1.0127-1.2648c-0.18302-0.21555-0.14641-0.39857 0.0732-0.57752 0.17489-0.21555 2.1636-2.3101 7.0359-2.3101 4.6567 0 7.5809 1.9481 7.5809 7.223v8.374h2.0254c0.28876 0 0.43517 0.14234 0.43517 0.43517v1.5536c0 0.28875-0.14641 0.42703-0.43517 0.42703z"/><path d="m614.44 239.27c-1.0452 0-1.5536-0.3945-1.5536-1.5129v-9.4965c0-2.7086-1.2974-4.4005-3.9694-4.4005-3.644 0-4.7665 3.0299-4.7991 3.0706v9.9235h1.9115c0.28875 0 0.4677 0.14234 0.4677 0.43517v1.5536c0 0.28875-0.17895 0.42703-0.4677 0.42703h-6.8936c-0.29282 0-0.47177-0.13828-0.47177-0.42703v-1.5536c0-0.29283 0.17895-0.43517 0.47177-0.43517h1.9847v-12.925h-1.9847c-0.29282 0-0.47177-0.14641-0.47177-0.43111v-1.5536c0-0.28876 0.17895-0.43517 0.47177-0.43517h4.2216c0.28876 0 0.46771 0.14641 0.46771 0.43517l-0.0691 2.4524h0.10981c0.4311-0.71986 1.9156-3.1397 5.8118-3.1397 3.8962 0 6.1412 2.489 6.1737 6.2795v9.3175h2.0213c0.28469 0 0.46771 0.14234 0.46771 0.43517v1.5536c0 0.28875-0.18302 0.42703-0.46771 0.42703z"/><path d="m635.64 235.09c0.25216 0.21962 0.25216 0.43111 0.10981 0.65073-0.43517 0.79306-2.9282 3.7904-7.6907 3.7904-4.8723 0-8.8824-3.4285-8.8824-9.2036 0-5.8484 4.2256-9.0654 8.5936-9.0654 3.2861 0 4.9821 1.5902 5.7386 2.672h0.0366l-0.0366-1.9847c0-0.28875 0.18301-0.4677 0.47177-0.4677h1.3706c0.28876 0 0.43111 0.17895 0.43111 0.4677v6.1371c0 0.29283-0.17895 0.43517-0.43111 0.43517h-1.6593c-0.25215 0-0.43517-0.14234-0.43517-0.43517v-0.61412c-0.0325-1.5495-1.9847-3.6847-5.1244-3.6847-2.7086 0-5.9216 2.2409-5.9216 6.5723 0 4.2988 3.0299 6.6414 6.0273 6.6414 3.1072 0 5.2342-1.9806 5.7426-2.8144 0.14235-0.25622 0.3945-0.28876 0.61412-0.10981z"/><path d="m651.23 228.56c-0.14641-2.9242-1.879-4.913-4.9821-4.913-2.4931 0-5.0187 1.4438-5.4498 4.913zm-10.505 2.2002c0.18302 4.2256 3.1397 6.2429 5.9948 6.2429 3.1031 0 5.2342-1.9481 5.7386-2.7737 0.17895-0.26028 0.3945-0.29282 0.64665-0.11387l0.97609 0.97608c0.25622 0.21962 0.28875 0.4311 0.14641 0.65072-0.47177 0.79714-2.9282 3.7905-7.6907 3.7905-4.8723 0-8.8824-3.4285-8.8824-9.2036 0-5.8484 4.189-9.0613 8.5204-9.0613 5.161 0 8.1625 3.4285 8.0527 9.0247 0 0.28469-0.17895 0.4677-0.50838 0.4677z"/><path d="m177.74 232.75c0.28875 0.21149 0.25215 0.43111 0.1098 0.7158-0.57751 1.1225-3.5424 6.068-11.229 6.068-6.861 0-12.311-5.1976-12.311-13.36 0-8.2316 5.7386-13.031 12.132-13.031 4.7625 0 7.1091 2.3101 8.1218 3.8637l-0.0366-3.2129c-0.0366-0.29283 0.14234-0.43517 0.4311-0.43517h2.0254c0.28876 0 0.46771 0.14234 0.46771 0.43517v7.8697c0 0.28876-0.17895 0.47177-0.46771 0.47177h-2.2735c-0.28876 0-0.43517-0.18301-0.43517-0.47177v-0.32536c0-1.9156-3.1031-5.2342-7.6541-5.2342-4.3314 0-8.9556 3.2495-8.9556 10.18 0 6.861 4.6242 10.216 9.0613 10.216 5.6003 0 7.9835-3.1031 8.8092-4.5469 0.18301-0.32536 0.43517-0.43517 0.68732-0.21555z"/><path d="m195.9 239.27c-1.0493 0-1.5536-0.3945-1.5536-1.5129v-9.4965c0-2.7086-1.2974-4.4005-3.9694-4.4005-3.6847 0-4.8031 3.1397-4.8031 3.1031v9.891h1.9156c0.28876 0 0.46771 0.14234 0.46771 0.43517v1.5536c0 0.28875-0.17895 0.42703-0.46771 0.42703h-6.8976c-0.28875 0-0.47177-0.13828-0.47177-0.42703v-1.5536c0-0.29283 0.18302-0.43517 0.47177-0.43517h1.9847v-21.083h-1.9847c-0.28875 0-0.47177-0.14641-0.47177-0.43517v-1.5536c0-0.28876 0.18302-0.43111 0.47177-0.43111h4.5469c0.29283 0 0.43517 0.14235 0.43517 0.43111v8.0527c0 0.54498-0.10574 1.9481-0.14234 2.2043h0.0691c0.65073-1.0086 2.2409-2.7818 5.6328-2.7818 3.9003 0 6.1371 2.489 6.1737 6.2795v9.3175h2.0213c0.28876 0 0.46771 0.14234 0.46771 0.43517v1.5536c0 0.28875-0.17895 0.42703-0.46771 0.42703z"/><path d="m205.24 219.6c-1.1184 0-2.0213-0.86627-2.0213-1.9847 0-1.1225 0.90288-2.0579 2.0213-2.0579s2.0213 0.93541 2.0213 2.0579c0 1.1184-0.90287 1.9847-2.0213 1.9847m-3.4285 19.672c-0.29283 0-0.47177-0.13828-0.47177-0.42704v-1.5536c0-0.29282 0.17894-0.43517 0.47177-0.43517h1.9847v-12.925h-1.9847c-0.29283 0-0.47177-0.14641-0.47177-0.4311v-1.5536c0-0.28876 0.17894-0.4311 0.47177-0.4311h4.5469c0.28875 0 0.43517 0.14234 0.43517 0.4311v14.91h1.9115c0.28876 0 0.47177 0.14235 0.47177 0.43517v1.5536c0 0.28876-0.18301 0.42704-0.47177 0.42704z"/><path d="m211.42 239.27c-0.28875 0-0.4677-0.13828-0.4677-0.42703v-1.5536c0-0.29283 0.17895-0.43517 0.4677-0.43517h1.9847v-21.083h-1.9847c-0.28875 0-0.4677-0.14641-0.4677-0.43517v-1.5536c0-0.28876 0.17895-0.43111 0.4677-0.43111h4.006c0.72393 0 0.97608 0.28876 0.97608 0.90288v22.6h1.9156c0.28876 0 0.46771 0.14234 0.46771 0.43517v1.5536c0 0.28875-0.17895 0.42703-0.46771 0.42703z"/><path d="m234.38 230.36c0-4.2256-2.5256-6.5723-5.4864-6.5723-3.1072 0-5.5962 2.4565-5.5962 6.5357 0 4.006 2.3426 6.678 5.5962 6.678 3.1031 0 5.4864-2.5622 5.4864-6.6414m1.7325 8.9149c-1.0818 0-1.5902-0.3945-1.5902-1.517v-2.0213h-0.0325c-0.68733 1.7692-2.7452 3.7905-6.0314 3.7905-4.8031 0-8.1218-3.6115-8.1218-9.2362 0-5.3074 3.2495-9.0288 8.1584-9.0288 3.2129 0 5.0919 1.8058 5.8484 3.5342h0.0366s-0.0366-0.71986-0.0366-1.1876v-7.8331h-2.0213c-0.28876 0-0.46771-0.14641-0.46771-0.43517v-1.5536c0-0.28876 0.17895-0.43111 0.46771-0.43111h4.4778c0.28469 0 0.4311 0.14235 0.4311 0.43111v23.068h2.0254c0.28469 0 0.43111 0.14641 0.43111 0.43517v1.5536c0 0.28876-0.18302 0.4311-0.43111 0.4311z"/><path d="m241.92 239.27c-0.28875 0-0.4677-0.13828-0.4677-0.42703v-1.5536c0-0.29283 0.17895-0.43517 0.4677-0.43517h1.9847v-12.925h-1.9847c-0.28875 0-0.4677-0.14641-0.4677-0.43111v-1.5536c0-0.28876 0.17895-0.43517 0.4677-0.43517h4.2216c0.29283 0 0.47177 0.14641 0.47177 0.43517v4.5144h0.10575s1.1957-5.0187 7.7314-5.0187c0.28469 0 0.46771 0.17895 0.46771 0.4677v1.9115c0 0.28876-0.18302 0.47177-0.46771 0.47177h-0.76053c-4.368 0-6.7878 3.3919-6.7878 6.4991v6.0639h1.9115c0.29282 0 0.47177 0.14234 0.47177 0.43517v1.5536c0 0.28875-0.17895 0.42703-0.47177 0.42703z"/><path d="m268.67 228.56c-0.14235-2.9242-1.879-4.913-4.9821-4.913-2.4931 0-5.0187 1.4438-5.4539 4.913zm-10.505 2.2002c0.17895 4.2256 3.1397 6.2429 5.9907 6.2429 3.1072 0 5.2342-1.9481 5.7426-2.7737 0.17895-0.26028 0.3945-0.29282 0.65073-0.11387l0.97201 0.97608c0.25622 0.21962 0.28876 0.4311 0.14641 0.65072-0.4677 0.79714-2.9242 3.7905-7.6907 3.7905-4.8723 0-8.8824-3.4285-8.8824-9.2036 0-5.8484 4.189-9.0613 8.5204-9.0613 5.1651 0 8.1625 3.4285 8.0527 9.0247 0 0.28469-0.18301 0.4677-0.50431 0.4677z"/><path d="m289.32 239.27c-1.0493 0-1.5536-0.3945-1.5536-1.5129v-9.4965c0-2.7086-1.2974-4.4005-3.9735-4.4005-3.644 0-4.7625 3.0299-4.7991 3.0706v9.9235h1.9115c0.28876 0 0.47178 0.14234 0.47178 0.43517v1.5536c0 0.28875-0.18302 0.42703-0.47178 0.42703h-6.8936c-0.28876 0-0.47177-0.13828-0.47177-0.42703v-1.5536c0-0.29283 0.18301-0.43517 0.47177-0.43517h1.9847v-12.925h-1.9847c-0.28876 0-0.47177-0.14641-0.47177-0.43111v-1.5536c0-0.28876 0.18301-0.43517 0.47177-0.43517h4.2216c0.28875 0 0.47177 0.14641 0.47177 0.43517l-0.0732 2.4524h0.10981c0.43111-0.71986 1.9115-3.1397 5.8118-3.1397s6.1371 2.489 6.1697 6.2795v9.3175h2.0254c0.28875 0 0.4677 0.14234 0.4677 0.43517v1.5536c0 0.28875-0.17895 0.42703-0.4677 0.42703z"/><path d="m321.7 230.33c0-4.0792-2.4931-6.5398-5.5596-6.5398-2.9608 0-5.523 2.3507-5.523 6.5764 0 4.0752 2.4158 6.6374 5.523 6.6374 3.2495 0 5.5596-2.668 5.5596-6.674m-13.47 8.9474c-0.24809 0-0.43111-0.13827-0.43111-0.42703v-23.068h-2.0213c-0.28876 0-0.46771-0.14641-0.46771-0.43923v-1.5495c0-0.28876 0.17895-0.43517 0.46771-0.43517h4.4412c0.28876 0 0.47178 0.14641 0.47178 0.43517v9.6063c0 0.14234-0.10981 1.4031-0.10981 1.4031h0.10981c0.71986-1.7285 2.668-3.5342 5.8809-3.5342 4.9089 0 8.0893 3.7213 8.0893 9.0247 0 5.6287-3.3228 9.2402-8.1259 9.2402-3.2495 0-5.1976-1.8424-5.9541-3.6481h-0.0366v2.9648c0 0.28876-0.18302 0.42703-0.47178 0.42703z"/><path d="m372.67 235.09c0.25216 0.21962 0.25216 0.43111 0.10981 0.65073-0.43517 0.79306-2.9242 3.7904-7.6907 3.7904-4.8763 0-8.8824-3.4285-8.8824-9.2036 0-5.8484 4.2256-9.0654 8.5936-9.0654 3.2821 0 4.9821 1.5902 5.7386 2.672h0.0366l-0.0366-1.9847c0-0.28875 0.18301-0.4677 0.47177-0.4677h1.3706c0.28876 0 0.43517 0.17895 0.43517 0.4677v6.1371c0 0.29283-0.18301 0.43517-0.43517 0.43517h-1.6593c-0.25215 0-0.43517-0.14234-0.43517-0.43517v-0.61412c-0.0366-1.5495-1.9847-3.6847-5.1285-3.6847-2.7046 0-5.9216 2.2409-5.9216 6.5723 0 4.2988 3.034 6.6414 6.0314 6.6414 3.1031 0 5.2342-1.9806 5.7426-2.8144 0.14235-0.25622 0.3945-0.28876 0.61005-0.10981z"/><path d="m390.36 239.27c-1.0493 0-1.5536-0.3945-1.5536-1.5129v-9.4965c0-2.7086-1.2974-4.4005-3.9694-4.4005-3.6847 0-4.8031 3.1397-4.8031 3.1031v9.891h1.9115c0.28876 0 0.47177 0.14234 0.47177 0.43517v1.5536c0 0.28875-0.18301 0.42703-0.47177 0.42703h-6.8936c-0.28876 0-0.47178-0.13828-0.47178-0.42703v-1.5536c0-0.29283 0.18302-0.43517 0.47178-0.43517h1.9847v-21.083h-1.9847c-0.28876 0-0.47178-0.14641-0.47178-0.43517v-1.5536c0-0.28876 0.18302-0.43111 0.47178-0.43111h4.5469c0.28876 0 0.43517 0.14235 0.43517 0.43111v8.0527c0 0.54498-0.10981 1.9481-0.14641 2.2043h0.0773c0.64666-1.0086 2.2328-2.7818 5.6288-2.7818 3.9003 0 6.1371 2.489 6.1737 6.2795v9.3175h2.0213c0.28876 0 0.47178 0.14234 0.47178 0.43517v1.5536c0 0.28875-0.18302 0.42703-0.47178 0.42703z"/><path d="m410.06 230.36c0-4.1158-2.851-6.5723-5.9541-6.5723-3.1438 0-5.9948 2.4565-5.9948 6.5723 0 4.0792 2.7452 6.6414 5.9582 6.6414 3.2455 0 5.9907-2.5622 5.9907-6.6414m-14.983-0.0366c0-5.702 4.0101-9.0613 9.0288-9.0613 5.0146 0 8.9515 3.4326 8.9515 9.0613s-3.8271 9.2036-8.9881 9.2036c-5.1285 0-8.9922-3.5342-8.9922-9.2036"/><path d="m418.58 219.6c-1.1184 0-2.0213-0.86627-2.0213-1.9847 0-1.1225 0.90288-2.0579 2.0213-2.0579s2.0213 0.93541 2.0213 2.0579c0 1.1184-0.90287 1.9847-2.0213 1.9847m-3.4285 19.672c-0.29283 0-0.47178-0.13828-0.47178-0.42704v-1.5536c0-0.29282 0.17895-0.43517 0.47178-0.43517h1.9806v-12.925h-1.9806c-0.29283 0-0.47178-0.14641-0.47178-0.4311v-1.5536c0-0.28876 0.17895-0.4311 0.47178-0.4311h4.5469c0.28875 0 0.4311 0.14234 0.4311 0.4311v14.91h1.9115c0.29283 0 0.47584 0.14235 0.47584 0.43517v1.5536c0 0.28876-0.18301 0.42704-0.47584 0.42704z"/><path d="m440.32 235.09c0.25216 0.21962 0.25216 0.43111 0.10575 0.65073-0.43111 0.79306-2.9242 3.7904-7.6907 3.7904-4.8723 0-8.8783-3.4285-8.8783-9.2036 0-5.8484 4.2216-9.0654 8.5895-9.0654 3.2862 0 4.9821 1.5902 5.7426 2.672h0.0366l-0.0366-1.9847c0-0.28875 0.18302-0.4677 0.46771-0.4677h1.3706c0.29282 0 0.43517 0.17895 0.43517 0.4677v6.1371c0 0.29283-0.17895 0.43517-0.43517 0.43517h-1.6553c-0.25623 0-0.43924-0.14234-0.43924-0.43517v-0.61412c-0.0325-1.5495-1.9806-3.6847-5.1285-3.6847-2.7046 0-5.9175 2.2409-5.9175 6.5723 0 4.2988 3.034 6.6414 6.0314 6.6414 3.1031 0 5.2342-1.9806 5.7386-2.8144 0.14234-0.25622 0.39856-0.28876 0.61411-0.10981z"/><path d="m455.9 228.56c-0.14234-2.9242-1.8749-4.913-4.978-4.913-2.4971 0-5.0228 1.4438-5.4539 4.913zm-10.505 2.2002c0.17895 4.2256 3.1438 6.2429 5.9948 6.2429 3.1072 0 5.2342-1.9481 5.7386-2.7737 0.17895-0.26028 0.39857-0.29282 0.65072-0.11387l0.97608 0.97608c0.25216 0.21962 0.28876 0.4311 0.14642 0.65072-0.47178 0.79714-2.9282 3.7905-7.6948 3.7905-4.8723 0-8.8783-3.4285-8.8783-9.2036 0-5.8484 4.189-9.0613 8.5163-9.0613 5.1651 0 8.1625 3.4285 8.0568 9.0247 0 0.28469-0.18302 0.4677-0.50838 0.4677z"/><path d="m491.64 239.27c-1.0452 0-1.5536-0.3945-1.5536-1.5129v-9.4965c0-2.7086-1.2974-4.4005-3.9694-4.4005-3.6481 0-4.7625 3.0299-4.8031 3.0706v9.9235h1.9115c0.28875 0 0.47177 0.14234 0.47177 0.43517v1.5536c0 0.28875-0.18302 0.42703-0.47177 0.42703h-6.8936c-0.28875 0-0.47177-0.13828-0.47177-0.42703v-1.5536c0-0.29283 0.18302-0.43517 0.47177-0.43517h1.9847v-12.925h-1.9847c-0.28875 0-0.47177-0.14641-0.47177-0.43111v-1.5536c0-0.28876 0.18302-0.43517 0.47177-0.43517h4.2256c0.28876 0 0.47177 0.14641 0.47177 0.43517l-0.0732 2.4524h0.10981c0.43111-0.71986 1.9074-3.1397 5.8077-3.1397 3.9003 0 6.1412 2.489 6.1737 6.2795v9.3175h2.0213c0.28876 0 0.47178 0.14234 0.47178 0.43517v1.5536c0 0.28875-0.18302 0.42703-0.47178 0.42703z"/><path d="m511.35 230.36c0-4.1158-2.851-6.5723-5.9582-6.5723-3.1397 0-5.9948 2.4565-5.9948 6.5723 0 4.0792 2.7452 6.6414 5.9582 6.6414 3.2536 0 5.9948-2.5622 5.9948-6.6414m-14.983-0.0366c0-5.702 4.006-9.0613 9.0247-9.0613 5.0187 0 8.9556 3.4326 8.9556 9.0613s-3.827 9.2036-8.9922 9.2036c-5.1244 0-8.9881-3.5342-8.9881-9.2036"/><path d="m527.56 237.44c0.21962 0.21555 0.14641 0.46771-0.0732 0.68326-0.32129 0.28876-1.5129 1.4072-3.644 1.4072-3.6115 0-5.8158-2.0579-5.8158-6.1331v-9.4599h-2.0213c-0.28469 0-0.50431-0.18302-0.50431-0.46771v-1.4845c0-0.28876 0.21962-0.4677 0.50431-0.4677h2.0213v-3.644c0-0.28875 0.21962-0.50837 0.50837-0.50837h2.0213c0.28876 0 0.4677 0.21962 0.4677 0.50837v3.644h4.5876c0.28876 0 0.50431 0.17894 0.50431 0.4677v1.4845c0 0.28469-0.21555 0.46771-0.50431 0.46771h-4.5876v9.3867c0 2.4158 1.1591 3.644 3.1072 3.644 1.0818 0 1.7692-0.54091 1.9115-0.68733 0.25215-0.21148 0.47177-0.17894 0.65072 0.0366z"/><path d="m555.79 235.09c0.25216 0.21962 0.25216 0.43111 0.10574 0.65073-0.4311 0.79306-2.9242 3.7904-7.6866 3.7904-4.8763 0-8.8824-3.4285-8.8824-9.2036 0-5.8484 4.2216-9.0654 8.5936-9.0654 3.2821 0 4.9821 1.5902 5.7386 2.672h0.0366l-0.0366-1.9847c0-0.28875 0.17895-0.4677 0.4677-0.4677h1.3746c0.28876 0 0.43517 0.17895 0.43517 0.4677v6.1371c0 0.29283-0.18301 0.43517-0.43517 0.43517h-1.6634c-0.24809 0-0.43111-0.14234-0.43111-0.43517v-0.61412c-0.0366-1.5495-1.9847-3.6847-5.1285-3.6847-2.7046 0-5.9216 2.2409-5.9216 6.5723 0 4.2988 3.034 6.6414 6.0314 6.6414 3.1072 0 5.2342-1.9806 5.7386-2.8144 0.14642-0.25622 0.39857-0.28876 0.61412-0.10981z"/><path d="m573.48 239.27c-1.0452 0-1.5536-0.3945-1.5536-1.5129v-9.4965c0-2.7086-1.2974-4.4005-3.9694-4.4005-3.6806 0-4.8031 3.1397-4.8031 3.1031v9.891h1.9156c0.28876 0 0.46771 0.14234 0.46771 0.43517v1.5536c0 0.28875-0.17895 0.42703-0.46771 0.42703h-6.8976c-0.28876 0-0.46771-0.13828-0.46771-0.42703v-1.5536c0-0.29283 0.17895-0.43517 0.46771-0.43517h1.9888v-21.083h-1.9888c-0.28876 0-0.46771-0.14641-0.46771-0.43517v-1.5536c0-0.28876 0.17895-0.43111 0.46771-0.43111h4.5469c0.29282 0 0.43517 0.14235 0.43517 0.43111v8.0527c0 0.54498-0.10574 1.9481-0.14235 2.2043h0.0732c0.64665-1.0086 2.2368-2.7818 5.6328-2.7818 3.8962 0 6.1371 2.489 6.1737 6.2795v9.3175h2.0213c0.2847 0 0.46771 0.14234 0.46771 0.43517v1.5536c0 0.28875-0.18301 0.42703-0.46771 0.42703z"/><path d="m241.78 111.28c0 0.4311-0.35383 0.78493-0.78494 0.78493h-84.907c-0.4311 0-0.78493-0.35383-0.78493-0.78493v-5.2546c0-0.4311 0.35383-0.78493 0.78493-0.78493h84.907c0.43111 0 0.78494 0.35383 0.78494 0.789z"/><path d="m173.03 125.38c0 0.4311-0.35383 0.78493-0.78493 0.78493h-16.15c-0.43111 0-0.78494-0.35383-0.78494-0.78493v-9.9601c0-0.42703 0.35383-0.78493 0.78494-0.78493h16.15c0.4311 0 0.78493 0.3579 0.78493 0.78493z"/><path d="m173.03 195.84c0 0.43517-0.35383 0.78493-0.78493 0.78493h-16.15c-0.43111 0-0.78494-0.34976-0.78494-0.78493v-9.956c0-0.43111 0.35383-0.78494 0.78494-0.78494h16.15c0.4311 0 0.78493 0.35383 0.78493 0.78494z"/><path d="m224.06 125.38c0 0.4311 0.35383 0.78493 0.78493 0.78493h16.15c0.43111 0 0.78494-0.35383 0.78494-0.78493v-9.9601c0-0.42703-0.35383-0.78493-0.78494-0.78493h-16.15c-0.4311 0-0.78493 0.3579-0.78493 0.78493z"/><path d="m224.06 195.84c0 0.43517 0.35383 0.78493 0.78493 0.78493h16.15c0.43111 0 0.78494-0.34976 0.78494-0.78493v-9.956c0-0.43111-0.35383-0.78494-0.78494-0.78494h-16.15c-0.4311 0-0.78493 0.35383-0.78493 0.78494z"/><path d="m234.94 129.54c0-0.4433-0.3579-0.8012-0.8012-0.8012h-9.2768c-0.43924 0-0.79714 0.3579-0.79714 0.8012v52.188c0 0.43924 0.3579 0.8012 0.79714 0.8012h9.2768c0.4433 0 0.8012-0.36196 0.8012-0.8012z"/><path d="m173.03 129.54c0-0.4433-0.3579-0.8012-0.8012-0.8012h-9.2728c-0.4433 0-0.8012 0.3579-0.8012 0.8012v52.188c0 0.43924 0.3579 0.8012 0.8012 0.8012h9.2728c0.4433 0 0.8012-0.36196 0.8012-0.8012z"/></g><path d="m202.71 125.19v10.131c0 1.1957-2.1108 2.2247-2.1108 2.2247v-14.702l2.1108 0.41891c2.0701 0.41076 4.974 0.98421 5.7386 1.1347 1.1835 0.23589 2.4036 2.3019 2.4036 2.3019zm0 17.472v10.131c0 1.1957-2.1108 2.4768-2.1108 2.4768v-14.706l2.1108 0.17081c2.0701 0.16675 4.974 0.40264 5.7386 0.45958 1.1835 0.0935 2.4036 2.0172 2.4036 2.0172zm0 17.476v24.382c0 1.1957-2.1108 2.9445-2.1108 2.9445v-29.177l2.1108-0.0813c2.0701-0.0773 4.974-0.18708 5.7386-0.21555 1.1835-0.0407 2.4036 1.7326 2.4036 1.7326zm-17.175-38.128v11.152c0 1.338-2.6354 2.4524-2.6354 2.4524v-16.28l2.6354 0.52058c2.5744 0.51244 6.1697 1.2242 7.1132 1.4112 1.4601 0.28876 2.9648 2.611 2.9648 2.611zm0 19.497v11.156c0 1.334-2.6354 2.7656-2.6354 2.7656v-16.288l2.6354 0.21148c2.5744 0.20742 6.1697 0.49617 7.1132 0.57345 1.4601 0.11794 2.9648 2.2613 2.9648 2.2613zm0 19.497v27.208c0 1.334-2.6354 3.3512-2.6354 3.3512v-32.613l2.6354-0.0976c2.5744-0.0976 6.1697-0.23182 7.1132-0.26843 1.4601-0.0569 2.9648 1.9115 2.9648 1.9115zm26.383-38.974-32.186-7.3654c-0.84594-0.19114-1.5414 0.36197-1.5414 1.2282v79.49c0 0.87034 0.68732 1.399 1.5251 1.1754l32.215-8.5c0.84187-0.22775 1.5251-1.1184 1.5251-1.9888v-62.107c0-0.86627-0.68732-1.7366-1.5373-1.9318" fill="#00aeef"/><path d="m186.96 102.67h23.446c0.33757-0.0407 0.60192-0.31722 0.62226-0.66292-0.34163-6.5194-5.7386-11.701-12.347-11.701-6.6048 0-12.01 5.1936-12.343 11.721 0.0285 0.33756 0.29282 0.60191 0.62225 0.64258" fill="#00aeef"/><g fill="#7b7f82"><path d="m196.86 70.793c-0.15048-0.13828-0.3457-0.21555-0.55312-0.20335-4.3964 0.19928-8.5977 1.3462-12.486 3.4-0.17895 0.0976-0.31723 0.26436-0.3701 0.46364-0.0569 0.19522-0.0244 0.4067 0.0773 0.58158l7.7965 12.97c0.13422 0.23182 0.3823 0.36196 0.63852 0.36196 0.10575 0 0.21149-0.0203 0.31316-0.0691 1.334-0.61818 2.729-1.0086 4.1443-1.1591 0.37823-0.0407 0.66699-0.36197 0.66699-0.74427v-15.06c0-0.20335-0.0813-0.39856-0.22775-0.54091"/><path d="m183.72 96.058-13.409-7.1295c-0.18302-0.0976-0.3945-0.11387-0.58565-0.0488-0.19522 0.0651-0.35383 0.20335-0.43924 0.39043-1.8749 3.9775-2.8266 8.2357-2.8306 12.652 0 0.19522 0.0813 0.38637 0.21962 0.52871 0.13828 0.13828 0.32943 0.21962 0.52871 0.21962h15.154c0.41076 0 0.74426-0.33756 0.74426-0.74833 0-1.6878 0.32536-3.3472 0.95981-4.9252 0.14235-0.35789-4e-3 -0.76053-0.34163-0.93948"/><path d="m189.03 89.314-7.8005-12.982c-0.10575-0.17488-0.27656-0.30096-0.47584-0.3457-0.19929-0.0447-0.4067-4e-3 -0.57752 0.10981-3.6196 2.4158-6.7187 5.6613-8.9637 9.3785-0.10981 0.17488-0.13421 0.39043-0.0813 0.58565 0.0529 0.19928 0.18708 0.36603 0.3701 0.45957l13.397 7.1254c0.10981 0.061 0.23182 0.0895 0.34976 0.0895 0.23996 0 0.47584-0.11795 0.61819-0.32943 0.79713-1.1754 1.7976-2.2206 2.977-3.1113 0.30096-0.23182 0.38637-0.65479 0.18708-0.98015"/><path d="m225.94 85.592c-2.2165-3.701-5.2708-6.9383-8.8376-9.3623-0.16674-0.11387-0.37823-0.15454-0.58158-0.11387-0.19928 0.0447-0.3701 0.17081-0.47584 0.34569l-7.7273 12.856c-0.19522 0.32943-0.11387 0.7524 0.19115 0.98015 1.1754 0.89475 2.1758 1.94 2.973 3.1113 0.14234 0.21555 0.37823 0.32942 0.61818 0.32942 0.11794 0 0.23589-0.0285 0.34976-0.0854l13.197-7.0197c0.18302-0.0976 0.31316-0.26029 0.3701-0.45958 0.0569-0.19521 0.0285-0.4067-0.0773-0.58158"/><path d="m213.84 74.556c-0.0529-0.19522-0.18708-0.36196-0.36603-0.45957-3.8555-2.0782-8.0364-3.2536-12.425-3.4976-0.21555-8e-3 -0.4067 0.0651-0.55718 0.20742-0.14641 0.13828-0.23182 0.33756-0.23182 0.54091v15.048c0 0.3823 0.28876 0.70359 0.66699 0.74426 1.4194 0.15048 2.8103 0.54091 4.1484 1.1591 0.0976 0.0447 0.20742 0.0651 0.30909 0.0651 0.25623 0 0.50431-0.13014 0.64259-0.35789l7.7314-12.868c0.10574-0.17488 0.13421-0.38636 0.0813-0.58158"/><path d="m227.85 89.389c-0.0854-0.18708-0.24402-0.32536-0.43923-0.3945-0.19522-0.0651-0.4067-0.0447-0.58972 0.0488l-13.197 7.0197c-0.33756 0.17895-0.48397 0.58158-0.34163 0.93948 0.63446 1.578 0.95982 3.2373 0.95982 4.9252 0 0.41483 0.32942 0.74833 0.74426 0.74833h14.893c0.19522 0 0.38637-0.0813 0.52871-0.21962 0.13828-0.14235 0.21962-0.3335 0.21962-0.52871-4e-3 -4.372-0.93541-8.5895-2.7778-12.539"/></g><g fill="#00aeef"><path d="m597.93 147.33h23.072c0.80527 0 1.4601-0.65479 1.4601-1.4641v-4.1524c0-0.80934-0.65479-1.4601-1.4601-1.4601h-16.052v-11.262h12.27c0.80934 0 1.4601-0.65479 1.4601-1.4601v-4.1036c0-0.80527-0.65072-1.4641-1.4601-1.4641h-12.27v-9.6429h14.918c0.80527 0 1.456-0.65886 1.456-1.4641v-4.1524c0-0.80934-0.65072-1.4601-1.456-1.4601h-21.937c-0.80934 0-1.4641 0.65072-1.4641 1.4601v39.161c0 0.80934 0.65478 1.4641 1.4641 1.4641"/><path d="m289.93 143.76 8.0039-21.596v23.707c0 0.80933 0.65479 1.4641 1.4601 1.4641h5.1895c0.80527 0 1.4601-0.65479 1.4601-1.4641v-39.161c0-0.80933-0.65479-1.4641-1.4601-1.4641h-6.8651c-0.61005 0-1.155 0.3823-1.3706 0.95574l-9.8096 26.537-9.5209-26.525c-0.21148-0.57752-0.76053-0.96795-1.3787-0.96795h-7.707c-0.80933 0-1.4601 0.65479-1.4601 1.4641v39.161c0 0.80933 0.65073 1.4641 1.4601 1.4641h4.7909c0.80527 0 1.4601-0.65479 1.4601-1.4641v-23.524l7.6663 21.401c0.20742 0.57751 0.75647 0.96795 1.3746 0.96795h5.3359c0.61412 0 1.1591-0.3823 1.3706-0.95575"/><path d="m332.78 129.4h-9.0328l4.5306-11.424zm0.10574-23.231c-0.21555-0.56124-0.75646-0.92728-1.3584-0.92728h-5.4864c-0.59785 0-1.1347 0.36197-1.3543 0.92322l-15.556 39.161c-0.17895 0.45144-0.12607 0.95982 0.14642 1.3624s0.72392 0.63852 1.2079 0.63852h5.161c0.60192 0 1.1388-0.36603 1.3584-0.92321l3.9369-9.9235h14.629l3.9084 9.9194c0.21962 0.56125 0.75646 0.92728 1.3584 0.92728h6.011c0.47991 0 0.93135-0.23589 1.2038-0.63852 0.27655-0.39857 0.32942-0.90694 0.15454-1.3543z"/><path d="m388.97 147.33h5.5596c0.80526 0 1.46-0.65479 1.46-1.4641v-39.161c0-0.80934-0.65479-1.4601-1.46-1.4601h-5.5596c-0.80527 0-1.46 0.65072-1.46 1.4601v39.161c0 0.80934 0.65478 1.4641 1.46 1.4641"/><path d="m428.51 145.87v-4.1565c0-0.80527-0.65479-1.4601-1.4641-1.4601h-16.048v-11.262h12.27c0.80527 0 1.4601-0.65479 1.4601-1.4601v-4.1036c0-0.80527-0.65479-1.4601-1.4601-1.4601h-12.27v-9.647h14.914c0.80527 0 1.4641-0.65479 1.4641-1.4601v-4.1565c0-0.80527-0.65886-1.4601-1.4641-1.4601h-21.933c-0.80527 0-1.4641 0.65479-1.4641 1.4601v39.165c0 0.80527 0.65885 1.4601 1.4641 1.4601h23.068c0.80933 0 1.4641-0.65479 1.4641-1.4601"/><path d="m518.85 105.24h-33.345c-0.80527 0-1.456 0.65479-1.456 1.4641v4.1524c0 0.80527 0.65072 1.4601 1.456 1.4601h12.433v33.549c0 0.80527 0.65479 1.46 1.4641 1.46h5.5555c0.80934 0 1.4641-0.65478 1.4641-1.46v-33.549h12.429c0.80527 0 1.4641-0.65479 1.4641-1.4601v-4.1524c0-0.80933-0.65886-1.4641-1.4641-1.4641"/><path d="m550.97 126.06c0 4.612-1.0818 14.999-10.952 14.999-9.834 0-10.948-10.261-10.948-14.999 0-5.0228 1.2486-14.893 10.948-14.893 9.5982 0 10.952 9.5819 10.952 14.893m-10.952-21.97c-8.6017 0-13.063 4.5916-14.336 5.9541-1.5536 1.6634-5.4335 6.9302-5.4335 16.069 0 5.6125 1.5658 11.855 5.645 16.301 1.09 1.1876 5.4132 5.7223 14.125 5.7223 4.0752 0 10.017-1.0818 14.536-6.1737 1.2079-1.3584 5.2424-6.4991 5.2424-15.849 0-4.0711-0.81747-10.664-5.3034-15.918-1.3502-1.5821-5.9134-6.1046-14.474-6.1046"/><path d="m360.15 112.32h2.9242c1.7041 0.0163 2.8428 0.11387 3.9694 0.63852 0.92727 0.42703 2.4605 1.2811 2.4605 3.9897 0 4.6161-3.9084 6.739-7.7843 6.739h-1.5699zm23.003 34.216c0.25216-0.48804 0.20742-1.0696-0.11387-1.5129l-12.063-16.919c2.855-1.4519 6.9546-5.0797 7.1417-11.689 0-2.8835-0.96389-5.4783-2.8632-7.7111-1.9603-2.2979-5.3969-3.4651-10.216-3.4651h-11.851c-0.8134 0-1.4682 0.65479-1.4682 1.4641v39.161c0 0.80934 0.65479 1.4641 1.4682 1.4641h5.4986c0.80933 0 1.4641-0.65478 1.4641-1.4641v-15.105h2.9486l10.717 15.926c0.27249 0.40263 0.72799 0.64258 1.212 0.64258h6.8244c0.54905 0 1.0493-0.30502 1.3014-0.79306"/><path d="m652.18 128.72c-0.65886-1.0005-3.518-3.9125-9.7324-7.1945-3.6237-1.9115-6.5276-3.6196-6.6699-6.1859-0.0854-0.68325 0.33756-4.0711 5.2749-4.0345 3.0218 0 5.4213 1.1184 8.7034 2.3467 1.2201 0.33756 2.1148-0.53685 2.1148-1.4316v-5.1244c0-0.67919-0.44737-1.2852-1.094-1.4763-1.9888-0.59378-5.9216-1.5821-9.9438-1.5821-8.0527 0-10.826 4.6283-11.709 5.828-1.6227 2.5419-3.1601 7.7436 0.37417 12.791 4.124 5.2383 12.726 7.8656 15.174 11.046 0.64666 0.8378 1.7814 3.9653-0.67512 6.1778-1.4519 1.456-4.25 1.818-8.0608 0.99235-1.399-0.30503-3.6928-1.1876-6.6496-2.5338-0.80527-0.38637-2.184 0.15861-2.184 1.399v5.5515c0 0.65072 0.49211 1.2933 1.1388 1.4845 9.6836 2.912 17.366 2.3507 22.104-2.0416 4.5998-4.2622 5.1732-10.94 1.8342-16.012"/><path d="m575.55 124.58h-2.0538v-12.16h3.0177c0.7402 0.0163 2.546 0.12608 3.7213 0.67106 1.7488 0.8134 2.8388 2.6476 2.8388 4.7828 0 4.1972-2.8144 6.7065-7.524 6.7065m9.9682-18.094c-1.8383-0.83373-4.6567-1.2445-8.6099-1.2445h-10.424c-0.83374 0-1.517 0.68326-1.517 1.5211v39.047c0 0.8378 0.68326 1.517 1.517 1.517h5.4905c0.8378 0 1.5211-0.67919 1.5211-1.517v-13.999c15.784 0 17.907-9.6917 17.907-14.816 0-2.9242-0.7646-8.1788-5.885-10.509"/><path d="m480.57 128.72c-0.65885-1.0005-3.518-3.9125-9.7283-7.1945-3.6237-1.9115-6.5316-3.6196-6.674-6.1859-0.0854-0.68325 0.33756-4.0711 5.2749-4.0345 3.0259 0 5.4213 1.1184 8.7075 2.3467 1.216 0.33756 2.1148-0.53685 2.1148-1.4316v-5.1244c0-0.67919-0.45144-1.2852-1.0981-1.4763-1.9847-0.59378-5.9216-1.5821-9.9438-1.5821-8.0527 0-10.826 4.6283-11.709 5.828-1.6227 2.5419-3.1601 7.7436 0.37417 12.791 4.124 5.2383 12.726 7.8656 15.178 11.046 0.64665 0.8378 1.7773 3.9653-0.67919 6.1778-1.4479 1.456-4.25 1.818-8.0608 0.99235-1.395-0.30503-3.6928-1.1876-6.6496-2.5338-0.80527-0.38637-2.1799 0.15861-2.1799 1.399v5.5515c0 0.65072 0.48805 1.2933 1.1388 1.4845 9.6795 2.912 17.362 2.3507 22.1-2.0416 4.6039-4.2622 5.1732-10.94 1.8342-16.012"/><path d="m611.29 180.58h-7.0278l3.522-8.8905zm0.73206-19.92c-0.23182-0.58565-0.79307-0.98015-1.4316-0.98015h-4.7381c-0.63039 0-1.1876 0.38636-1.4194 0.96794l-13.458 33.87c-0.19115 0.47584-0.13014 1.0086 0.15861 1.4234 0.28876 0.41891 0.76054 0.67106 1.2689 0.67106h4.4534c0.64259 0 1.2038-0.37823 1.4234-0.96795l3.3431-8.4187h12.29l3.3106 8.4187c0.22775 0.58158 0.8012 0.96795 1.4153 0.96795h5.1976c0.50837 0 0.98015-0.24809 1.2648-0.66699 0.28062-0.4067 0.34569-0.94761 0.16268-1.4194z"/><path d="m651.3 189.96h-13.502v-28.742c0-0.85001-0.68326-1.5373-1.5292-1.5373h-4.8072c-0.84594 0-1.5251 0.68732-1.5251 1.5373v33.87c0 0.84594 0.67919 1.5292 1.5251 1.5292h19.839c0.84187 0 1.5292-0.68326 1.5292-1.5292v-3.5993c0-0.84187-0.68733-1.5292-1.5292-1.5292"/><path d="m272.81 159.68h-4.8072c-0.84187 0-1.5333 0.68733-1.5333 1.5333v33.874c0 0.8378 0.69139 1.5292 1.5333 1.5292h4.8072c0.8378 0 1.5251-0.69139 1.5251-1.5292v-33.874c0-0.84594-0.68733-1.5333-1.5251-1.5333"/><path d="m307.43 159.68h-4.1443c-0.84187 0-1.5292 0.68733-1.5292 1.5333v20.974l-14.169-21.807c-0.28469-0.44331-0.7646-0.69953-1.2811-0.69953h-4.734c-0.85001 0-1.5333 0.68733-1.5333 1.5333v33.874c0 0.8378 0.68325 1.5292 1.5333 1.5292h4.1402c0.8378 0 1.5251-0.69139 1.5251-1.5292v-20.974l14.194 21.791c0.28469 0.45143 0.7646 0.71172 1.2852 0.71172h4.7137c0.83781 0 1.5292-0.69139 1.5292-1.5292v-33.874c0-0.84594-0.69139-1.5333-1.5292-1.5333"/><path d="m343.15 159.68h-28.835c-0.84187 0-1.5251 0.68733-1.5251 1.5333v3.6034c0 0.83373 0.68325 1.5251 1.5251 1.5251h10.489v28.746c0 0.8378 0.68732 1.5292 1.5292 1.5292h4.8072c0.8378 0 1.5251-0.69139 1.5251-1.5292v-28.746h10.485c0.84594 0 1.5333-0.6914 1.5333-1.5251v-3.6034c0-0.84594-0.68732-1.5333-1.5333-1.5333"/><path d="m370.01 189.96h-13.616v-9.1996h10.346c0.8378 0 1.5292-0.68733 1.5292-1.5292v-3.5546c0-0.8378-0.6914-1.5292-1.5292-1.5292h-10.346v-7.8005h12.632c0.84594 0 1.5251-0.69139 1.5251-1.5292v-3.5993c0-0.85001-0.67919-1.5373-1.5251-1.5373h-18.973c-0.8378 0-1.5292 0.68732-1.5292 1.5373v33.87c0 0.83781 0.69139 1.5292 1.5292 1.5292h19.957c0.84593 0 1.5292-0.69139 1.5292-1.5292v-3.5993c0-0.84187-0.68326-1.5292-1.5292-1.5292"/><path d="m384.1 166.33h2.3955c1.3909 8e-3 2.3223 0.0895 3.2455 0.51651 0.75647 0.34976 2.0132 1.0534 2.0132 3.2658 0 3.7742-3.2007 5.5067-6.3689 5.5067h-1.2852zm9.4924 13.482c2.5256-1.3665 6.072-5.2098 6.0476-10.2-0.0122-2.4036-0.86221-4.8641-2.546-6.8407-1.7366-2.0538-4.7828-3.095-9.0288-3.095h-10.257c-0.84187 0-1.5292 0.68732-1.5292 1.5333v33.874c0 0.8378 0.68732 1.5292 1.5292 1.5292h4.7584c0.8378 0 1.5333-0.6914 1.5333-1.5292v-12.803h2.1392l9.1874 13.653c0.29283 0.42297 0.76053 0.67919 1.2811 0.67919h5.8931c0.57752 0 1.094-0.31723 1.3584-0.83374 0.26842-0.51244 0.22369-1.1184-0.10981-1.5902z"/><path d="m435.01 159.68h-4.1402c-0.85 0-1.5333 0.68733-1.5333 1.5333v20.974l-14.161-21.807c-0.28876-0.44331-0.76866-0.69953-1.2811-0.69953h-4.734c-0.8378 0-1.5292 0.68733-1.5292 1.5333v33.874c0 0.8378 0.69139 1.5292 1.5292 1.5292h4.1321c0.84594 0 1.5333-0.69139 1.5333-1.5292v-20.974l14.194 21.791c0.28063 0.45143 0.75647 0.71172 1.2811 0.71172h4.7096c0.84594 0 1.5292-0.69139 1.5292-1.5292v-33.874c0-0.84594-0.68326-1.5333-1.5292-1.5333"/><path d="m461.09 180.58-7.0319-4e-3 3.5261-8.8864zm0.73207-19.924c-0.23182-0.58972-0.79307-0.97608-1.4316-0.97608h-4.7381c-0.62225 0-1.1998 0.39043-1.4194 0.96794l-13.454 33.87c-0.19521 0.47584-0.13828 1.0086 0.15455 1.4234 0.28469 0.41891 0.76053 0.67106 1.2648 0.67106h4.4696c0.63446 0 1.1957-0.3823 1.4072-0.96795l3.3472-8.4187h12.282l3.3228 8.4187c0.21962 0.58972 0.789 0.96795 1.4234 0.96795h5.1895c0.50838 0 0.97201-0.24809 1.2608-0.66699 0.29283-0.4189 0.34976-0.94761 0.16268-1.4194z"/><path d="m500.51 159.68h-28.839c-0.82967 0-1.5211 0.68733-1.5211 1.5373v3.5993c0 0.83373 0.6914 1.5251 1.5211 1.5251h10.489v28.746c0 0.84594 0.69139 1.5292 1.5333 1.5292h4.8072c0.84187 0 1.5251-0.68325 1.5251-1.5292v-28.746h10.485c0.84187 0 1.5414-0.6914 1.5414-1.5251v-3.5993c0-0.85-0.69953-1.5373-1.5414-1.5373"/><path d="m512.67 159.68h-4.8072c-0.83374 0-1.517 0.68733-1.517 1.5373v33.87c0 0.84594 0.68326 1.5292 1.517 1.5292h4.8072c0.85408 0 1.5373-0.68325 1.5373-1.5292v-33.87c0-0.85-0.68325-1.5373-1.5373-1.5373"/><path d="m585.24 159.68h-4.1443c-0.84594 0-1.5251 0.68733-1.5251 1.5373v20.97l-14.169-21.803c-0.28062-0.44738-0.76866-0.7036-1.2811-0.7036h-4.7381c-0.84187 0-1.5373 0.68733-1.5373 1.5373v33.87c0 0.84594 0.69546 1.5292 1.5373 1.5292h4.1443c0.84594 0 1.5333-0.68325 1.5333-1.5292v-20.974l14.19 21.807c0.27655 0.43517 0.75646 0.69546 1.2811 0.69546h4.7096c0.84187 0 1.5292-0.68325 1.5292-1.5292v-33.87c0-0.85-0.68733-1.5373-1.5292-1.5373"/><path d="m536.17 190.81c-7.8371 0.0935-9.2647-8.0934-9.2077-12.705 0.0651-5.2058 1.5821-12.608 9.2077-12.608 7.9632-0.0529 9.2728 8.3699 9.1996 12.608-0.0285 10.05-4.978 12.835-9.1996 12.705m0-31.971c-7.7883 0-11.733 4.2744-12.624 5.2668-2.2206 2.5175-4.7665 7.3532-4.7503 14.056 0 7.9469 3.4204 12.364 4.2053 13.393 1.1388 1.3787 5.1 5.9012 13.169 5.9053 3.5586-8e-3 7.6948-0.80934 11.428-4.067 1.7488-1.7895 5.8158-5.6979 5.9338-15.231 0-4.0345-1.0412-10.229-5.0838-14.418-0.91508-0.91508-4.8072-4.9048-12.278-4.9048"/></g></g></svg>
