<?xml version="1.0" encoding="utf-8"?>
<!-- Generator: Adobe Illustrator 16.0.0, SVG Export Plug-In . SVG Version: 6.00 Build 0)  -->
<!DOCTYPE svg PUBLIC "-//W3C//DTD SVG 1.1//EN" "http://www.w3.org/Graphics/SVG/1.1/DTD/svg11.dtd">
<svg version="1.1" id="Calque_1" xmlns="http://www.w3.org/2000/svg" xmlns:xlink="http://www.w3.org/1999/xlink" x="0px" y="0px"
	 width="2391.215px" height="746.898px" viewBox="0 0 2391.215 746.898" enable-background="new 0 0 2391.215 746.898"
	 xml:space="preserve">
<rect x="36.357" y="167.026" fill="#E40521" width="491.951" height="491.984"/>
<g>
	<path fill="#FFFFFF" d="M246.617,367.785c-6.289,0.406-34.652,6.106-52.651,12.723l49.323-88.552v51.861h23.078l-0.259-138.375
		L121.177,463.829l24.746,4.359l24.532-44.787c6.498-8.879,26.225-30.026,73.024-33.987v216.638H53.506v22.92h212.793V366.988
		C266.299,366.988,252.926,367.405,246.617,367.785"/>
	<path fill="#FFFFFF" d="M320.863,366.519l-0.376-66.102l35.787,72.769C342.106,366.519,321.684,366.491,320.863,366.519
		 M389.608,627.848h121.165l-215.01-422.406v422.354l24.814-0.301V387.519c29.598,3.82,45.872,13.469,53.402,24.61l96.798,193.319
		l-81.17-0.064V627.848z"/>
</g>
<polygon points="695.032,379.884 695.032,247.956 723.006,247.956 723.006,356.783 776.518,356.783 776.518,379.884 "/>
<g>
	<path d="M876.896,325.019c-8.845-28.454-13.822-44.544-14.937-48.276c-1.111-3.73-1.909-6.678-2.391-8.844
		c-1.983,7.702-7.669,26.742-17.053,57.12H876.896z M893.139,379.884l-9.564-31.402h-48.1l-9.562,31.402h-30.14l46.562-132.47
		h34.201l46.742,132.47H893.139z"/>
	<path d="M1091.638,343.249c0,11.911-4.287,21.295-12.86,28.153c-8.572,6.859-20.499,10.288-35.779,10.288
		c-14.075,0-26.529-2.646-37.356-7.94V347.76c8.901,3.971,16.436,6.767,22.603,8.392c6.167,1.625,11.806,2.436,16.92,2.436
		c6.138,0,10.842-1.173,14.124-3.519c3.276-2.346,4.918-5.835,4.918-10.467c0-2.587-0.724-4.888-2.166-6.904
		c-1.444-2.015-3.564-3.954-6.362-5.82c-2.799-1.864-8.499-4.842-17.102-8.933c-8.062-3.791-14.107-7.43-18.136-10.92
		c-4.033-3.489-7.252-7.548-9.656-12.182c-2.407-4.631-3.61-10.045-3.61-16.243c0-11.67,3.956-20.844,11.868-27.522
		c7.908-6.677,18.842-10.017,32.8-10.017c6.857,0,13.4,0.812,19.628,2.438c6.227,1.623,12.737,3.911,19.535,6.856l-9.023,21.749
		c-7.037-2.888-12.858-4.902-17.461-6.046c-4.602-1.142-9.131-1.715-13.581-1.715c-5.293,0-9.354,1.234-12.181,3.699
		c-2.829,2.468-4.243,5.687-4.243,9.657c0,2.467,0.571,4.617,1.715,6.451c1.143,1.836,2.961,3.61,5.46,5.324
		c2.497,1.715,8.407,4.799,17.732,9.251c12.33,5.896,20.784,11.807,25.356,17.731
		C1089.352,327.381,1091.638,334.646,1091.638,343.249"/>
</g>
<polygon points="1204.469,379.884 1128.485,379.884 1128.485,247.956 1204.469,247.956 1204.469,270.876 1156.461,270.876 
	1156.461,299.843 1201.129,299.843 1201.129,322.764 1156.461,322.764 1156.461,356.783 1204.469,356.783 "/>
<g>
	<path d="M1361.968,379.884h-35.555l-57.393-99.804h-0.812c1.144,17.628,1.715,30.201,1.715,37.72v62.084h-24.995V247.956h35.283
		l57.299,98.811h0.635c-0.902-17.146-1.354-29.267-1.354-36.366v-62.445h25.178V379.884z"/>
</g>
<polygon points="1484.093,379.884 1408.11,379.884 1408.11,247.956 1484.093,247.956 1484.093,270.876 1436.085,270.876 
	1436.085,299.843 1480.754,299.843 1480.754,322.764 1436.085,322.764 1436.085,356.783 1484.093,356.783 "/>
<g>
	<path d="M1574.632,305.799h52.341v68.402c-8.482,2.767-16.472,4.707-23.961,5.819c-7.488,1.113-15.146,1.669-22.966,1.669
		c-19.91,0-35.116-5.851-45.614-17.552c-10.5-11.699-15.748-28.499-15.748-50.396c0-21.297,6.093-37.901,18.276-49.812
		c12.18-11.911,29.069-17.868,50.667-17.868c13.535,0,26.589,2.708,39.164,8.123l-9.295,22.378
		c-9.626-4.812-19.643-7.218-30.049-7.218c-12.091,0-21.779,4.061-29.058,12.182c-7.279,8.121-10.919,19.04-10.919,32.756
		c0,14.318,2.933,25.253,8.799,32.802c5.865,7.551,14.393,11.324,25.582,11.324c5.835,0,11.763-0.601,17.777-1.805V329.08h-24.997
		V305.799z"/>
	<path d="M1735.832,325.019c-8.844-28.454-13.823-44.544-14.937-48.276c-1.112-3.73-1.91-6.678-2.391-8.844
		c-1.984,7.702-7.669,26.742-17.054,57.12H1735.832z M1752.075,379.884l-9.566-31.402h-48.099l-9.564,31.402h-30.139l46.563-132.47
		h34.2l46.741,132.47H1752.075z"/>
</g>
<polygon points="1811.754,379.884 1811.754,247.956 1839.726,247.956 1839.726,356.783 1893.238,356.783 1893.238,379.884 "/>
<g>
	<path d="M1993.617,325.019c-8.844-28.454-13.823-44.544-14.936-48.276c-1.113-3.73-1.911-6.678-2.391-8.844
		c-1.986,7.702-7.671,26.742-17.055,57.12H1993.617z M2009.858,379.884l-9.564-31.402h-48.099l-9.564,31.402h-30.14l46.562-132.47
		h34.203l46.741,132.47H2009.858z"/>
</g>
<rect x="2069.542" y="247.956" width="27.972" height="131.929"/>
<g>
	<path d="M2221.533,343.249c0,11.911-4.288,21.295-12.86,28.153c-8.571,6.859-20.499,10.288-35.779,10.288
		c-14.077,0-26.531-2.646-37.357-7.94V347.76c8.902,3.971,16.436,6.767,22.603,8.392c6.166,1.625,11.807,2.436,16.921,2.436
		c6.137,0,10.842-1.173,14.124-3.519c3.277-2.346,4.918-5.835,4.918-10.467c0-2.587-0.725-4.888-2.166-6.904
		c-1.445-2.015-3.564-3.954-6.362-5.82c-2.801-1.864-8.499-4.842-17.102-8.933c-8.062-3.791-14.106-7.43-18.138-10.92
		c-4.031-3.489-7.25-7.548-9.656-12.182c-2.407-4.631-3.608-10.045-3.608-16.243c0-11.67,3.955-20.844,11.867-27.522
		c7.909-6.677,18.843-10.017,32.801-10.017c6.858,0,13.4,0.812,19.627,2.438c6.228,1.623,12.737,3.911,19.537,6.856l-9.025,21.749
		c-7.038-2.888-12.856-4.902-17.461-6.046c-4.602-1.142-9.132-1.715-13.581-1.715c-5.292,0-9.354,1.234-12.182,3.699
		c-2.828,2.468-4.241,5.687-4.241,9.657c0,2.467,0.571,4.617,1.714,6.451c1.143,1.836,2.963,3.61,5.459,5.324
		c2.498,1.715,8.407,4.799,17.733,9.251c12.329,5.896,20.785,11.807,25.357,17.731
		C2219.247,327.381,2221.533,334.646,2221.533,343.249"/>
</g>
<polygon points="2334.362,379.884 2258.382,379.884 2258.382,247.956 2334.362,247.956 2334.362,270.876 2286.356,270.876 
	2286.356,299.843 2331.026,299.843 2331.026,322.764 2286.356,322.764 2286.356,356.783 2334.362,356.783 "/>
<g>
	<path d="M775.435,510.472c0-28.333-12.513-42.502-37.54-42.502h-14.888v85.906h12.003
		C761.96,553.876,775.435,539.411,775.435,510.472 M804.492,509.751c0,21.718-6.182,38.351-18.543,49.9
		c-12.363,11.552-30.216,17.327-53.557,17.327h-37.36V445.05h41.421c21.536,0,38.261,5.686,50.17,17.056
		C798.537,473.475,804.492,489.357,804.492,509.751"/>
</g>
<polygon points="907.815,576.979 831.833,576.979 831.833,445.05 907.815,445.05 907.815,467.97 859.809,467.97 859.809,496.937 
	904.477,496.937 904.477,519.858 859.809,519.858 859.809,553.876 907.815,553.876 "/>
<polygon points="983.344,576.979 983.344,445.05 1011.318,445.05 1011.318,553.876 1064.827,553.876 1064.827,576.979 "/>
<g>
	<path d="M1107.783,445.051l1.265,1.984c-3.011,11.852-8.304,26.259-15.885,43.225h-19.762c4.151-17.806,7.16-32.877,9.023-45.209
		H1107.783z"/>
	<path d="M1192.337,522.113c-8.844-28.454-13.824-44.546-14.937-48.276c-1.112-3.729-1.91-6.678-2.392-8.844
		c-1.983,7.702-7.668,26.742-17.054,57.12H1192.337z M1208.58,576.979l-9.567-31.402h-48.097l-9.563,31.402h-30.14l46.562-132.47
		h34.199l46.743,132.47H1208.58z"/>
	<path d="M1362.706,445.051v85.364c0,9.745-2.183,18.289-6.543,25.628c-4.362,7.34-10.663,12.965-18.904,16.875
		c-8.244,3.91-17.988,5.866-29.237,5.866c-16.965,0-30.14-4.347-39.525-13.041c-9.383-8.69-14.078-20.587-14.078-35.688v-85.004
		h27.885v80.763c0,10.167,2.046,17.627,6.137,22.379c4.091,4.754,10.858,7.129,20.302,7.129c9.145,0,15.777-2.391,19.9-7.175
		c4.12-4.781,6.182-12.287,6.182-22.514v-80.582H1362.706z"/>
</g>
<polygon points="1445.906,576.979 1417.933,576.979 1417.933,468.332 1382.106,468.332 1382.106,445.05 1481.729,445.05 
	1481.729,468.332 1445.906,468.332 "/>
<g>
	<path d="M1525.496,510.834c0,14.739,2.797,25.84,8.392,33.297c5.595,7.46,13.956,11.19,25.087,11.19
		c22.318,0,33.478-14.829,33.478-44.487c0-29.718-11.099-44.579-33.299-44.579c-11.129,0-19.521,3.745-25.175,11.236
		C1528.322,484.981,1525.496,496.096,1525.496,510.834 M1621.78,510.834c0,21.838-5.415,38.621-16.243,50.353
		c-10.828,11.73-26.35,17.596-46.562,17.596s-35.735-5.865-46.562-17.596c-10.83-11.731-16.244-28.575-16.244-50.534
		c0-21.955,5.427-38.726,16.288-50.307c10.857-11.58,26.422-17.372,46.697-17.372c20.273,0,35.78,5.837,46.519,17.506
		C1616.409,472.152,1621.78,488.936,1621.78,510.834"/>
	<path d="M1704.979,576.979l-31.766-103.504h-0.812c1.141,21.058,1.715,35.103,1.715,42.142v61.362h-24.996V445.05h38.079
		l31.225,100.886h0.541l33.117-100.886h38.079v131.929h-26.078v-62.444c0-2.948,0.046-6.346,0.134-10.197
		c0.094-3.85,0.498-14.078,1.22-30.682h-0.812l-34.021,103.323H1704.979z"/>
	<path d="M1846.834,510.834c0,14.739,2.796,25.84,8.392,33.297c5.595,7.46,13.957,11.19,25.087,11.19
		c22.318,0,33.479-14.829,33.479-44.487c0-29.718-11.1-44.579-33.299-44.579c-11.13,0-19.522,3.745-25.175,11.236
		C1849.662,484.981,1846.834,496.096,1846.834,510.834 M1943.118,510.834c0,21.838-5.414,38.621-16.243,50.353
		c-10.827,11.73-26.349,17.596-46.562,17.596c-20.215,0-35.735-5.865-46.562-17.596c-10.83-11.731-16.243-28.575-16.243-50.534
		c0-21.955,5.427-38.726,16.289-50.307c10.855-11.58,26.422-17.372,46.696-17.372c20.273,0,35.779,5.837,46.52,17.506
		C1937.75,472.152,1943.118,488.936,1943.118,510.834"/>
	<path d="M1998.433,519.498v34.379h18.229c7.7,0,13.384-1.473,17.053-4.421c3.671-2.945,5.508-7.458,5.508-13.535
		c0-10.949-7.823-16.423-23.464-16.423H1998.433z M1998.433,497.299h16.245c7.58,0,13.067-1.174,16.468-3.521
		c3.398-2.346,5.099-6.226,5.099-11.641c0-5.053-1.849-8.677-5.55-10.874c-3.701-2.194-9.551-3.294-17.551-3.294h-14.711V497.299z
		 M1970.46,445.051h41.06c18.709,0,32.288,2.662,40.742,7.985c8.45,5.324,12.678,13.793,12.678,25.401
		c0,7.883-1.85,14.349-5.55,19.403c-3.701,5.051-8.617,8.091-14.753,9.112v0.903c8.36,1.864,14.394,5.354,18.092,10.468
		c3.698,5.114,5.55,11.91,5.55,20.394c0,12.032-4.348,21.417-13.04,28.153c-8.692,6.739-20.5,10.107-35.42,10.107h-49.358V445.051z"
		/>
</g>
<rect x="2094.629" y="445.05" width="27.972" height="131.929"/>
<polygon points="2155.81,576.979 2155.81,445.05 2183.78,445.05 2183.78,553.876 2237.294,553.876 2237.294,576.979 "/>
<polygon points="2336.196,576.979 2260.214,576.979 2260.214,445.05 2336.196,445.05 2336.196,467.97 2288.188,467.97 
	2288.188,496.937 2332.857,496.937 2332.857,519.858 2288.188,519.858 2288.188,553.876 2336.196,553.876 "/>
</svg>
